# Blender v3.6.2 OBJ File: 'simple_chain.blend'
# www.blender.org
mtllib Torus_022.mtl
o Torus.022
v -0.214800 0.001307 1.081634
v -0.210635 0.001307 1.066089
v -0.199255 0.001307 1.054709
v -0.183711 0.001307 1.050544
v -0.168166 0.001307 1.054709
v -0.156786 0.001307 1.066089
v -0.152621 0.001307 1.081634
v -0.156787 0.001307 1.097178
v -0.168166 0.001307 1.108558
v -0.183711 0.001307 1.112723
v -0.199255 0.001307 1.108558
v -0.210635 0.001307 1.097178
v -0.179396 0.133437 1.081634
v -0.175789 0.131354 1.066089
v -0.165934 0.125664 1.054710
v -0.152472 0.117892 1.050544
v -0.139010 0.110120 1.054710
v -0.129155 0.104430 1.066089
v -0.125548 0.102347 1.081634
v -0.129155 0.104430 1.097178
v -0.139010 0.110120 1.108558
v -0.152472 0.117892 1.112723
v -0.165934 0.125664 1.108558
v -0.175789 0.131354 1.097178
v -0.082670 0.230162 1.081634
v -0.080588 0.226555 1.066089
v -0.074898 0.216700 1.054710
v -0.067126 0.203238 1.050544
v -0.059353 0.189776 1.054710
v -0.053664 0.179921 1.066089
v -0.051581 0.176314 1.081634
v -0.053664 0.179921 1.097178
v -0.059354 0.189776 1.108558
v -0.067126 0.203238 1.112723
v -0.074898 0.216700 1.108558
v -0.080588 0.226555 1.097178
v 0.049459 0.265566 1.081634
v 0.049459 0.261401 1.066089
v 0.049459 0.250022 1.054710
v 0.049459 0.234477 1.050545
v 0.049459 0.218932 1.054710
v 0.049459 0.207553 1.066089
v 0.049459 0.203388 1.081634
v 0.049459 0.207553 1.097179
v 0.049459 0.218932 1.108558
v 0.049459 0.234477 1.112723
v 0.049459 0.250022 1.108558
v 0.049459 0.261401 1.097179
v 0.181588 0.230162 1.081634
v 0.179506 0.226555 1.066089
v 0.173816 0.216700 1.054710
v 0.166044 0.203238 1.050545
v 0.158272 0.189776 1.054710
v 0.152582 0.179921 1.066089
v 0.150499 0.176314 1.081634
v 0.152582 0.179921 1.097179
v 0.158272 0.189776 1.108558
v 0.166044 0.203238 1.112723
v 0.173816 0.216700 1.108558
v 0.179506 0.226555 1.097179
v 0.278314 0.133437 1.081634
v 0.274707 0.131354 1.066089
v 0.264852 0.125665 1.054710
v 0.251390 0.117892 1.050545
v 0.237928 0.110120 1.054710
v 0.228073 0.104430 1.066089
v 0.224466 0.102347 1.081634
v 0.228073 0.104430 1.097179
v 0.237928 0.110120 1.108558
v 0.251390 0.117892 1.112723
v 0.264852 0.125664 1.108558
v 0.274707 0.131354 1.097179
v 0.313718 0.001307 1.081634
v 0.309553 0.001307 1.066089
v 0.298173 0.001307 1.054710
v 0.282629 0.001307 1.050545
v 0.267084 0.001307 1.054710
v 0.255705 0.001307 1.066089
v 0.251539 0.001307 1.081634
v 0.255705 0.001307 1.097179
v 0.267084 0.001307 1.108558
v 0.282629 0.001307 1.112723
v 0.298173 0.001307 1.108558
v 0.309553 0.001307 1.097179
v 0.278314 -0.130822 1.081634
v 0.274707 -0.128740 1.066089
v 0.264852 -0.123050 1.054710
v 0.251390 -0.115278 1.050545
v 0.237928 -0.107505 1.054710
v 0.228073 -0.101815 1.066089
v 0.224466 -0.099733 1.081634
v 0.228073 -0.101816 1.097178
v 0.237928 -0.107505 1.108558
v 0.251390 -0.115278 1.112723
v 0.264852 -0.123050 1.108558
v 0.274707 -0.128740 1.097179
v 0.181589 -0.227548 1.081634
v 0.179506 -0.223941 1.066089
v 0.173816 -0.214086 1.054710
v 0.166044 -0.200624 1.050544
v 0.158272 -0.187162 1.054710
v 0.152582 -0.177307 1.066089
v 0.150499 -0.173700 1.081634
v 0.152582 -0.177307 1.097178
v 0.158272 -0.187162 1.108558
v 0.166044 -0.200624 1.112723
v 0.173816 -0.214086 1.108558
v 0.179506 -0.223941 1.097178
v 0.049459 -0.262952 1.081634
v 0.049459 -0.258787 1.066089
v 0.049459 -0.247407 1.054710
v 0.049459 -0.231863 1.050544
v 0.049459 -0.216318 1.054710
v 0.049459 -0.204938 1.066089
v 0.049459 -0.200773 1.081634
v 0.049459 -0.204938 1.097178
v 0.049459 -0.216318 1.108558
v 0.049459 -0.231863 1.112723
v 0.049459 -0.247407 1.108558
v 0.049459 -0.258787 1.097178
v -0.082670 -0.227548 1.081634
v -0.080588 -0.223941 1.066089
v -0.074898 -0.214086 1.054709
v -0.067126 -0.200624 1.050544
v -0.059353 -0.187162 1.054709
v -0.053664 -0.177307 1.066089
v -0.051581 -0.173700 1.081634
v -0.053664 -0.177307 1.097178
v -0.059353 -0.187162 1.108558
v -0.067126 -0.200624 1.112723
v -0.074898 -0.214086 1.108558
v -0.080588 -0.223941 1.097178
v -0.179396 -0.130822 1.081634
v -0.175789 -0.128740 1.066089
v -0.165934 -0.123050 1.054709
v -0.152472 -0.115278 1.050544
v -0.139010 -0.107505 1.054709
v -0.129155 -0.101816 1.066089
v -0.125548 -0.099733 1.081634
v -0.129155 -0.101816 1.097178
v -0.139010 -0.107505 1.108558
v -0.152472 -0.115278 1.112723
v -0.165934 -0.123050 1.108558
v -0.175789 -0.128740 1.097178
vt 0.500000 0.500000
vt 0.583333 0.500000
vt 0.583333 0.583333
vt 0.500000 0.583333
vt 0.583333 0.666667
vt 0.500000 0.666667
vt 0.583333 0.750000
vt 0.500000 0.750000
vt 0.583333 0.833333
vt 0.500000 0.833333
vt 0.583333 0.916667
vt 0.500000 0.916667
vt 0.583333 1.000000
vt 0.500000 1.000000
vt 0.500000 0.000000
vt 0.583333 0.000000
vt 0.583333 0.083333
vt 0.500000 0.083333
vt 0.583333 0.166667
vt 0.500000 0.166667
vt 0.583333 0.250000
vt 0.500000 0.250000
vt 0.583333 0.333333
vt 0.500000 0.333333
vt 0.583333 0.416667
vt 0.500000 0.416667
vt 0.666667 0.500000
vt 0.666667 0.583333
vt 0.666667 0.666667
vt 0.666667 0.750000
vt 0.666667 0.833333
vt 0.666667 0.916667
vt 0.666667 1.000000
vt 0.666667 0.000000
vt 0.666667 0.083333
vt 0.666667 0.166667
vt 0.666667 0.250000
vt 0.666667 0.333333
vt 0.666667 0.416667
vt 0.750000 0.500000
vt 0.750000 0.583333
vt 0.750000 0.666667
vt 0.750000 0.750000
vt 0.750000 0.833333
vt 0.750000 0.916667
vt 0.750000 1.000000
vt 0.750000 0.000000
vt 0.750000 0.083333
vt 0.750000 0.166667
vt 0.750000 0.250000
vt 0.750000 0.333333
vt 0.750000 0.416667
vt 0.833333 0.500000
vt 0.833333 0.583333
vt 0.833333 0.666667
vt 0.833333 0.750000
vt 0.833333 0.833333
vt 0.833333 0.916667
vt 0.833333 1.000000
vt 0.833333 0.000000
vt 0.833333 0.083333
vt 0.833333 0.166667
vt 0.833333 0.250000
vt 0.833333 0.333333
vt 0.833333 0.416667
vt 0.916667 0.500000
vt 0.916667 0.583333
vt 0.916667 0.666667
vt 0.916667 0.750000
vt 0.916667 0.833333
vt 0.916667 0.916667
vt 0.916667 1.000000
vt 0.916667 0.000000
vt 0.916667 0.083333
vt 0.916667 0.166667
vt 0.916667 0.250000
vt 0.916667 0.333333
vt 0.916667 0.416667
vt 1.000000 0.500000
vt 1.000000 0.583333
vt 1.000000 0.666667
vt 1.000000 0.750000
vt 1.000000 0.833333
vt 1.000000 0.916667
vt 1.000000 1.000000
vt 1.000000 0.000000
vt 1.000000 0.083333
vt 1.000000 0.166667
vt 1.000000 0.250000
vt 1.000000 0.333333
vt 1.000000 0.416667
vt 0.000000 0.500000
vt 0.083333 0.500000
vt 0.083333 0.583333
vt 0.000000 0.583333
vt 0.083333 0.666667
vt 0.000000 0.666667
vt 0.083333 0.750000
vt 0.000000 0.750000
vt 0.083333 0.833333
vt 0.000000 0.833333
vt 0.083333 0.916667
vt 0.000000 0.916667
vt 0.083333 1.000000
vt 0.000000 1.000000
vt 0.000000 0.000000
vt 0.083333 0.000000
vt 0.083333 0.083333
vt 0.000000 0.083333
vt 0.083333 0.166667
vt 0.000000 0.166667
vt 0.083333 0.250000
vt 0.000000 0.250000
vt 0.083333 0.333333
vt 0.000000 0.333333
vt 0.083333 0.416667
vt 0.000000 0.416667
vt 0.166667 0.500000
vt 0.166667 0.583333
vt 0.166667 0.666667
vt 0.166667 0.750000
vt 0.166667 0.833333
vt 0.166667 0.916667
vt 0.166667 1.000000
vt 0.166667 0.000000
vt 0.166667 0.083333
vt 0.166667 0.166667
vt 0.166667 0.250000
vt 0.166667 0.333333
vt 0.166667 0.416667
vt 0.250000 0.500000
vt 0.250000 0.583333
vt 0.250000 0.666667
vt 0.250000 0.750000
vt 0.250000 0.833333
vt 0.250000 0.916667
vt 0.250000 1.000000
vt 0.250000 0.000000
vt 0.250000 0.083333
vt 0.250000 0.166667
vt 0.250000 0.250000
vt 0.250000 0.333333
vt 0.250000 0.416667
vt 0.333333 0.500000
vt 0.333333 0.583333
vt 0.333333 0.666667
vt 0.333333 0.750000
vt 0.333333 0.833333
vt 0.333333 0.916667
vt 0.333333 1.000000
vt 0.333333 0.000000
vt 0.333333 0.083333
vt 0.333333 0.166667
vt 0.333333 0.250000
vt 0.333333 0.333333
vt 0.333333 0.416667
vt 0.416667 0.500000
vt 0.416667 0.583333
vt 0.416667 0.666667
vt 0.416667 0.750000
vt 0.416667 0.833333
vt 0.416667 0.916667
vt 0.416667 1.000000
vt 0.416667 0.000000
vt 0.416667 0.083333
vt 0.416667 0.166667
vt 0.416667 0.250000
vt 0.416667 0.333333
vt 0.416667 0.416667
vn -0.9351 0.2506 -0.2506
vn -0.6947 0.1862 -0.6947
vn -0.2582 0.0692 -0.9636
vn 0.2582 -0.0692 -0.9636
vn 0.6947 -0.1862 -0.6947
vn 0.9351 -0.2506 -0.2506
vn 0.9351 -0.2506 0.2506
vn 0.6947 -0.1862 0.6948
vn 0.2582 -0.0692 0.9636
vn -0.2582 0.0692 0.9636
vn -0.6947 0.1862 0.6948
vn -0.9351 0.2506 0.2506
vn -0.6846 0.6845 -0.2506
vn -0.5086 0.5086 -0.6947
vn -0.1890 0.1890 -0.9636
vn 0.1890 -0.1890 -0.9636
vn 0.5086 -0.5086 -0.6947
vn 0.6846 -0.6846 -0.2506
vn 0.6846 -0.6846 0.2506
vn 0.5086 -0.5086 0.6948
vn 0.1890 -0.1890 0.9636
vn -0.1890 0.1890 0.9636
vn -0.5086 0.5086 0.6948
vn -0.6845 0.6846 0.2506
vn -0.2506 0.9351 -0.2506
vn -0.1862 0.6947 -0.6947
vn -0.0692 0.2582 -0.9636
vn 0.0692 -0.2582 -0.9636
vn 0.1862 -0.6947 -0.6947
vn 0.2506 -0.9351 -0.2506
vn 0.2506 -0.9351 0.2506
vn 0.1862 -0.6947 0.6947
vn 0.0692 -0.2582 0.9636
vn -0.0692 0.2582 0.9636
vn -0.1862 0.6947 0.6948
vn -0.2506 0.9351 0.2506
vn 0.2506 0.9351 -0.2506
vn 0.1862 0.6947 -0.6947
vn 0.0692 0.2582 -0.9636
vn -0.0692 -0.2582 -0.9636
vn -0.1862 -0.6947 -0.6947
vn -0.2506 -0.9351 -0.2506
vn -0.2506 -0.9351 0.2506
vn -0.1862 -0.6947 0.6948
vn -0.0692 -0.2582 0.9636
vn 0.0692 0.2582 0.9636
vn 0.1862 0.6947 0.6948
vn 0.2506 0.9351 0.2506
vn 0.6846 0.6845 -0.2506
vn 0.5086 0.5086 -0.6947
vn 0.1890 0.1890 -0.9636
vn -0.1890 -0.1890 -0.9636
vn -0.5086 -0.5086 -0.6947
vn -0.6845 -0.6846 -0.2506
vn -0.6846 -0.6846 0.2506
vn -0.5086 -0.5086 0.6947
vn -0.1890 -0.1890 0.9636
vn 0.1890 0.1890 0.9636
vn 0.5086 0.5086 0.6948
vn 0.6846 0.6845 0.2506
vn 0.9351 0.2506 -0.2506
vn 0.6947 0.1862 -0.6947
vn 0.2582 0.0692 -0.9636
vn -0.2582 -0.0692 -0.9636
vn -0.6947 -0.1862 -0.6947
vn -0.9351 -0.2506 -0.2506
vn -0.9351 -0.2506 0.2506
vn -0.6947 -0.1862 0.6948
vn -0.2582 -0.0692 0.9636
vn 0.2582 0.0692 0.9636
vn 0.6947 0.1862 0.6948
vn 0.9351 0.2506 0.2506
vn -0.6947 0.1862 0.6947
vn -0.6846 0.6846 -0.2506
vn -0.6846 0.6846 0.2506
vn -0.5086 0.5086 0.6947
vn 0.5086 -0.5086 0.6947
vn 0.6845 -0.6846 0.2506
vn -0.1862 0.6947 0.6947
vn 0.1862 -0.6947 0.6948
vn -0.6846 -0.6845 -0.2506
vn 0.6845 0.6846 -0.2506
vn 0.6845 0.6846 0.2506
vn 0.5086 0.5086 0.6947
vn -0.5086 -0.5086 0.6948
vn -0.6948 -0.1862 -0.6947
vn 0.6947 0.1862 0.6947
usemtl None
s off
f 1/1/1 13/2/1 14/3/1 2/4/1
f 2/4/2 14/3/2 15/5/2 3/6/2
f 3/6/3 15/5/3 16/7/3 4/8/3
f 4/8/4 16/7/4 17/9/4 5/10/4
f 5/10/5 17/9/5 18/11/5 6/12/5
f 6/12/6 18/11/6 19/13/6 7/14/6
f 7/15/7 19/16/7 20/17/7 8/18/7
f 8/18/8 20/17/8 21/19/8 9/20/8
f 9/20/9 21/19/9 22/21/9 10/22/9
f 10/22/10 22/21/10 23/23/10 11/24/10
f 11/24/11 23/23/11 24/25/11 12/26/11
f 12/26/12 24/25/12 13/2/12 1/1/12
f 13/2/13 25/27/13 26/28/13 14/3/13
f 14/3/14 26/28/14 27/29/14 15/5/14
f 15/5/15 27/29/15 28/30/15 16/7/15
f 16/7/16 28/30/16 29/31/16 17/9/16
f 17/9/17 29/31/17 30/32/17 18/11/17
f 18/11/18 30/32/18 31/33/18 19/13/18
f 19/16/19 31/34/19 32/35/19 20/17/19
f 20/17/20 32/35/20 33/36/20 21/19/20
f 21/19/21 33/36/21 34/37/21 22/21/21
f 22/21/22 34/37/22 35/38/22 23/23/22
f 23/23/23 35/38/23 36/39/23 24/25/23
f 24/25/24 36/39/24 25/27/24 13/2/24
f 25/27/25 37/40/25 38/41/25 26/28/25
f 26/28/26 38/41/26 39/42/26 27/29/26
f 27/29/27 39/42/27 40/43/27 28/30/27
f 28/30/28 40/43/28 41/44/28 29/31/28
f 29/31/29 41/44/29 42/45/29 30/32/29
f 30/32/30 42/45/30 43/46/30 31/33/30
f 31/34/31 43/47/31 44/48/31 32/35/31
f 32/35/32 44/48/32 45/49/32 33/36/32
f 33/36/33 45/49/33 46/50/33 34/37/33
f 34/37/34 46/50/34 47/51/34 35/38/34
f 35/38/35 47/51/35 48/52/35 36/39/35
f 36/39/36 48/52/36 37/40/36 25/27/36
f 37/40/37 49/53/37 50/54/37 38/41/37
f 38/41/38 50/54/38 51/55/38 39/42/38
f 39/42/39 51/55/39 52/56/39 40/43/39
f 40/43/40 52/56/40 53/57/40 41/44/40
f 41/44/41 53/57/41 54/58/41 42/45/41
f 42/45/42 54/58/42 55/59/42 43/46/42
f 43/47/43 55/60/43 56/61/43 44/48/43
f 44/48/44 56/61/44 57/62/44 45/49/44
f 45/49/45 57/62/45 58/63/45 46/50/45
f 46/50/46 58/63/46 59/64/46 47/51/46
f 47/51/47 59/64/47 60/65/47 48/52/47
f 48/52/48 60/65/48 49/53/48 37/40/48
f 49/53/49 61/66/49 62/67/49 50/54/49
f 50/54/50 62/67/50 63/68/50 51/55/50
f 51/55/51 63/68/51 64/69/51 52/56/51
f 52/56/52 64/69/52 65/70/52 53/57/52
f 53/57/53 65/70/53 66/71/53 54/58/53
f 54/58/54 66/71/54 67/72/54 55/59/54
f 55/60/55 67/73/55 68/74/55 56/61/55
f 56/61/56 68/74/56 69/75/56 57/62/56
f 57/62/57 69/75/57 70/76/57 58/63/57
f 58/63/58 70/76/58 71/77/58 59/64/58
f 59/64/59 71/77/59 72/78/59 60/65/59
f 60/65/60 72/78/60 61/66/60 49/53/60
f 61/66/61 73/79/61 74/80/61 62/67/61
f 62/67/62 74/80/62 75/81/62 63/68/62
f 63/68/63 75/81/63 76/82/63 64/69/63
f 64/69/64 76/82/64 77/83/64 65/70/64
f 65/70/65 77/83/65 78/84/65 66/71/65
f 66/71/66 78/84/66 79/85/66 67/72/66
f 67/73/67 79/86/67 80/87/67 68/74/67
f 68/74/68 80/87/68 81/88/68 69/75/68
f 69/75/69 81/88/69 82/89/69 70/76/69
f 70/76/70 82/89/70 83/90/70 71/77/70
f 71/77/71 83/90/71 84/91/71 72/78/71
f 72/78/72 84/91/72 73/79/72 61/66/72
f 73/92/6 85/93/6 86/94/6 74/95/6
f 74/95/5 86/94/5 87/96/5 75/97/5
f 75/97/4 87/96/4 88/98/4 76/99/4
f 76/99/3 88/98/3 89/100/3 77/101/3
f 77/101/2 89/100/2 90/102/2 78/103/2
f 78/103/1 90/102/1 91/104/1 79/105/1
f 79/106/12 91/107/12 92/108/12 80/109/12
f 80/109/73 92/108/73 93/110/73 81/111/73
f 81/111/10 93/110/10 94/112/10 82/113/10
f 82/113/9 94/112/9 95/114/9 83/115/9
f 83/115/8 95/114/8 96/116/8 84/117/8
f 84/117/7 96/116/7 85/93/7 73/92/7
f 85/93/18 97/118/18 98/119/18 86/94/18
f 86/94/17 98/119/17 99/120/17 87/96/17
f 87/96/16 99/120/16 100/121/16 88/98/16
f 88/98/15 100/121/15 101/122/15 89/100/15
f 89/100/14 101/122/14 102/123/14 90/102/14
f 90/102/74 102/123/74 103/124/74 91/104/74
f 91/107/75 103/125/75 104/126/75 92/108/75
f 92/108/76 104/126/76 105/127/76 93/110/76
f 93/110/22 105/127/22 106/128/22 94/112/22
f 94/112/21 106/128/21 107/129/21 95/114/21
f 95/114/77 107/129/77 108/130/77 96/116/77
f 96/116/78 108/130/78 97/118/78 85/93/78
f 97/118/30 109/131/30 110/132/30 98/119/30
f 98/119/29 110/132/29 111/133/29 99/120/29
f 99/120/28 111/133/28 112/134/28 100/121/28
f 100/121/27 112/134/27 113/135/27 101/122/27
f 101/122/26 113/135/26 114/136/26 102/123/26
f 102/123/25 114/136/25 115/137/25 103/124/25
f 103/125/36 115/138/36 116/139/36 104/126/36
f 104/126/79 116/139/79 117/140/79 105/127/79
f 105/127/34 117/140/34 118/141/34 106/128/34
f 106/128/33 118/141/33 119/142/33 107/129/33
f 107/129/80 119/142/80 120/143/80 108/130/80
f 108/130/31 120/143/31 109/131/31 97/118/31
f 109/131/42 121/144/42 122/145/42 110/132/42
f 110/132/41 122/145/41 123/146/41 111/133/41
f 111/133/40 123/146/40 124/147/40 112/134/40
f 112/134/39 124/147/39 125/148/39 113/135/39
f 113/135/38 125/148/38 126/149/38 114/136/38
f 114/136/37 126/149/37 127/150/37 115/137/37
f 115/138/48 127/151/48 128/152/48 116/139/48
f 116/139/47 128/152/47 129/153/47 117/140/47
f 117/140/46 129/153/46 130/154/46 118/141/46
f 118/141/45 130/154/45 131/155/45 119/142/45
f 119/142/44 131/155/44 132/156/44 120/143/44
f 120/143/43 132/156/43 121/144/43 109/131/43
f 121/144/81 133/157/81 134/158/81 122/145/81
f 122/145/53 134/158/53 135/159/53 123/146/53
f 123/146/52 135/159/52 136/160/52 124/147/52
f 124/147/51 136/160/51 137/161/51 125/148/51
f 125/148/50 137/161/50 138/162/50 126/149/50
f 126/149/82 138/162/82 139/163/82 127/150/82
f 127/151/83 139/164/83 140/165/83 128/152/83
f 128/152/84 140/165/84 141/166/84 129/153/84
f 129/153/58 141/166/58 142/167/58 130/154/58
f 130/154/57 142/167/57 143/168/57 131/155/57
f 131/155/85 143/168/85 144/169/85 132/156/85
f 132/156/55 144/169/55 133/157/55 121/144/55
f 133/157/66 1/1/66 2/4/66 134/158/66
f 134/158/86 2/4/86 3/6/86 135/159/86
f 135/159/64 3/6/64 4/8/64 136/160/64
f 136/160/63 4/8/63 5/10/63 137/161/63
f 137/161/62 5/10/62 6/12/62 138/162/62
f 138/162/61 6/12/61 7/14/61 139/163/61
f 139/164/72 7/15/72 8/18/72 140/165/72
f 140/165/87 8/18/87 9/20/87 141/166/87
f 141/166/70 9/20/70 10/22/70 142/167/70
f 142/167/69 10/22/69 11/24/69 143/168/69
f 143/168/68 11/24/68 12/26/68 144/169/68
f 144/169/67 12/26/67 1/1/67 133/157/67
